<?xml version="1.0" standalone="no"?>
<!DOCTYPE svg PUBLIC "-//W3C//DTD SVG 20010904//EN"
 "http://www.w3.org/TR/2001/REC-SVG-20010904/DTD/svg10.dtd">
<svg version="1.0" xmlns="http://www.w3.org/2000/svg"
 width="552.000000pt" height="465.000000pt" viewBox="0 0 552.000000 465.000000"
 preserveAspectRatio="xMidYMid meet">

<g transform="translate(0.000000,465.000000) scale(0.100000,-0.100000)"
fill="#000000" stroke="none">
<path d="M4550 4099 c-539 -6 -517 -5 -683 -54 -63 -18 -214 -83 -328 -141
-208 -104 -381 -251 -576 -489 -51 -63 -147 -211 -168 -262 -104 -241 -135
-342 -165 -543 -17 -111 -20 -183 -20 -446 0 -301 1 -314 19 -314 27 0 35 14
69 125 48 160 66 202 154 365 108 201 272 390 485 558 167 132 474 269 693
311 181 34 242 39 269 22 22 -14 -3 -22 -102 -31 -131 -13 -183 -26 -322 -80
-169 -67 -244 -106 -357 -188 -184 -134 -300 -253 -451 -463 -67 -93 -174
-324 -217 -468 -22 -73 -37 -138 -34 -142 7 -13 706 -11 801 1 144 19 343 79
493 148 36 16 91 41 123 56 211 96 514 373 653 596 78 125 139 255 184 390 71
215 80 294 80 701 0 379 3 362 -58 357 -15 -1 -259 -5 -542 -9z"/>
<path d="M600 3505 c-10 -13 -12 -65 -7 -248 9 -294 17 -364 62 -512 50 -166
120 -304 215 -418 175 -211 325 -316 601 -418 116 -42 309 -59 677 -59 l302 0
0 249 c0 174 -4 274 -15 332 -17 97 -77 295 -106 345 -108 193 -116 205 -234
337 -137 153 -326 270 -570 352 -104 35 -206 44 -576 50 -296 5 -338 3 -349
-10z"/>
<path d="M2185 1688 c-132 -3 -258 -11 -280 -16 -283 -68 -445 -159 -596 -336
-66 -77 -143 -208 -174 -297 -32 -91 -48 -221 -46 -393 0 -93 4 -172 7 -175 3
-3 125 -4 272 -2 334 3 384 12 552 88 181 84 371 278 458 468 60 134 72 205
72 446 0 165 -3 218 -12 220 -7 2 -121 1 -253 -3z"/>
<path d="M2616 1692 c-12 -12 -5 -241 9 -317 37 -191 164 -362 338 -452 115
-60 186 -73 400 -73 l187 0 0 134 c0 165 -17 254 -70 361 -56 113 -148 204
-282 278 -106 59 -155 68 -378 72 -109 1 -201 0 -204 -3z"/>
</g>
</svg>
