<?xml version="1.0" encoding="utf-8"?>
<svg version="1.1" id="Capa_1" x="0px" y="0px" width="360px" height="360px" viewBox="0 0 360 360" enable-background="new 0 0 360 360" xmlns="http://www.w3.org/2000/svg">
  <defs/>
  <g>
    <g>
      <path d="M355.815,144.433c-2.236-19.688-55.247,0-55.247,0l-3.123,28.015c-1.157-0.661-2.332-1.305-3.567-1.853&#10;&#9;&#9;&#9;l-13.39-58.422c-4.907-27.815-25.9-48.304-56.5-47.251h-78.624c-0.479,3.263-1.244,6.421-2.192,9.509h86.124&#10;&#9;&#9;&#9;c17.861,0,34.227,11.493,38.698,30.469l14.382,57.683c-0.905-0.026-1.801-0.113-2.714-0.113h-166.75l0.043,56.23h103.298v12.571&#10;&#9;&#9;&#9;h-103.29l0.009,3.672H215.21v12.598H112.973l0.035,47.243h110.293v29.92c0,12.154,15.043,22.029,33.584,22.029&#10;&#9;&#9;&#9;c18.54,0,33.557-9.866,33.557-22.029V291.32c15.843-5.986,26.875-19.08,26.875-34.314v-53.533&#10;&#9;&#9;&#9;c0-11.832-6.682-22.367-17.026-29.284l55.525-3.002C355.815,171.187,358.042,164.104,355.815,144.433z M292.207,246.601h-60.605&#10;&#9;&#9;&#9;v-28.815h60.605V246.601L292.207,246.601z" style=""/>
      <path d="M133.436,56.447C133.384,32.278,120.247,11.223,100.68,0v52.141L68.306,70.829L35.906,52.08V0&#10;&#9;&#9;&#9;C16.374,11.223,3.21,32.278,3.193,56.447c0,25.344,14.53,47.304,35.706,58.083v0.278v214.453c0,8.492,3.419,16.174,8.987,21.751&#10;&#9;&#9;&#9;c5.56,5.567,13.233,8.952,21.742,8.987c16.913,0,30.66-13.729,30.721-30.729l-0.131-216.106&#10;&#9;&#9;&#9;C120.046,102.011,133.41,80.765,133.436,56.447z M76.397,342.869c-4.576,4.594-12.023,4.594-16.635-0.009&#10;&#9;&#9;&#9;c-4.542-4.559-4.533-11.972,0.043-16.565c4.603-4.576,12.024-4.576,16.565-0.035C80.974,330.863,80.982,338.284,76.397,342.869z" style=""/>
    </g>
  </g>
</svg>