<?xml version="1.0" encoding="utf-8"?>
<svg version="1.1" id="Layer_1" x="0px" y="0px" width="360px" height="360px" viewBox="0 0 360 360" enable-background="new 0 0 360 360" xmlns="http://www.w3.org/2000/svg">
  <defs/>
  <g>
    <path fill-rule="evenodd" clip-rule="evenodd" d="M20.628,162.057c-0.772,3.172-0.229,76.99-0.229,86.993&#10;&#9;&#9;c0,8.945-0.658,20.776,0.086,29.35l9.552,0.144c0.486-5.002,0.114-68.274,0.114-75.133c0-6.202,0-12.403,0-18.604&#10;&#9;&#9;c0-6.431,0.915-10.403,6.578-12.404c2.488-0.886,71.613-0.886,74.158,0c5.148,1.772,6.664,5.43,6.664,12.003v75.161&#10;&#9;&#9;c0,5.83-0.429,13.232,0.057,18.833l81.08,0.086C154.56,260.31,123.5,216.898,123.5,166.258c0-2.687,0.086-5.344,0.258-7.974&#10;&#9;&#9;c-3.203-2.229-5.063-4.687-6.234-5.458c-2.889,2.058-7.265,9.374-19.419,9.374c-4.433,0-8.094-1.144-11.383-2.858&#10;&#9;&#9;c-2.316-1.201-4.576-2.944-6.206-4.687l-1.859-1.829c-2.088,1.372-7.007,9.374-19.419,9.374c-12.355,0-17.618-8.202-19.419-9.374&#10;&#9;&#9;c-1.115,0.743-2.459,2.601-3.489,3.458c-1.202,1-2.917,2.201-4.347,2.943C28.063,161.228,25.775,161.571,20.628,162.057&#10;&#9;&#9;L20.628,162.057z" style=""/>
    <path fill-rule="evenodd" clip-rule="evenodd" d="M9.502,113.988c-4.49,1.429-3.718,4.916-3.718,9.402&#10;&#9;&#9;c0,11.174-2.202,24.406,10.753,28.521c7.779,2.458,14.528-2.543,17.017-7.716c1.63-3.429,0.801-7.802,3.06-9.888&#10;&#9;&#9;c3.003-2.744,7.379-0.629,7.951,2.915c1.03,6.373,2.431,12.432,11.04,14.833c8.322,2.343,14.843-3.344,17.045-8.459&#10;&#9;&#9;c1.516-3.486,0.343-7.573,3.26-9.659c3.518-2.486,7.15,0.372,7.579,3.658c0.601,4.487,0.743,6.288,3.346,9.574&#10;&#9;&#9;c6.664,8.402,20.735,6.688,24.768-3.829c1.43-3.658,0.314-7.688,3.403-9.545c4.003-2.429,7.036,0.915,7.378,4.544&#10;&#9;&#9;c0.344,3.229,1.315,5.887,2.746,8.002c1.916-11.517,5.434-22.491,10.324-32.665H61.268&#10;&#9;&#9;C53.917,113.673,12.992,112.902,9.502,113.988L9.502,113.988z" style=""/>
    <path fill-rule="evenodd" clip-rule="evenodd" d="M4.984,288.488c-2.66,0.6-3.89,2.058-4.033,5.001&#10;&#9;&#9;c-0.687,15.833,0.744,14.175,13.356,14.175c20.077,0,251.648,0.515,254.879-0.143c4.977-1.029,4.118-9.088,3.718-14.433&#10;&#9;&#9;c-0.458-6.315-7.665-4.829-13.327-4.829C239.386,288.26,8.272,287.717,4.984,288.488L4.984,288.488z" style=""/>
    <path fill-rule="evenodd" clip-rule="evenodd" d="M39.875,181.576l-0.085,96.881l67.895,0.086l0.086-96.881&#10;&#9;&#9;L39.875,181.576z M62.869,254.308h-7.264c-8.322,0-8.008-9.716,0-9.716h7.264C70.934,244.592,71.277,254.308,62.869,254.308&#10;&#9;&#9;L62.869,254.308z M98.132,224.015c0,6.974-3.947,10.975-10.954,10.975H60.467c-7.007,0-10.925-3.944-10.925-10.975v-16.976&#10;&#9;&#9;c0-6.802,3.718-10.859,10.524-10.859h27.513c6.692,0,10.553,3.915,10.553,10.859V224.015z" style=""/>
    <path fill-rule="evenodd" clip-rule="evenodd" d="M88.352,205.953l-29.029-0.114&#10;&#9;&#9;c-0.257,5.544-0.085,11.546-0.085,17.004c0,3.029-0.486,2.401,6.063,2.401l21.106,0.028c2.259-0.058,2.03-0.172,2.03-2.43&#10;&#9;&#9;C88.437,217.441,88.637,211.269,88.352,205.953L88.352,205.953z" style=""/>
    <path fill-rule="evenodd" clip-rule="evenodd" d="M244.934,52.144c63.119,0,114.256,51.126,114.256,114.142&#10;&#9;&#9;s-51.137,114.086-114.256,114.086s-114.255-51.07-114.255-114.086S181.814,52.144,244.934,52.144L244.934,52.144z M244.934,63.204&#10;&#9;&#9;c56.999,0,103.245,46.125,103.245,103.083c0,56.9-46.246,103.083-103.245,103.083c-56.998,0-103.244-46.183-103.244-103.083&#10;&#9;&#9;C141.689,109.329,187.936,63.204,244.934,63.204L244.934,63.204z" style=""/>
    <path fill-rule="evenodd" clip-rule="evenodd" d="M249.338,127.505l0.029,88.393l5.491-4.687&#10;&#9;&#9;c1.772-1.486,3.86-2.772,6.034-4.087c8.666-5.373,20.734-8.659,31.316-9.374l9.467-0.6c2.688-0.886,4.204-2.829,4.204-6.145&#10;&#9;&#9;v-84.078c0-3.229-1.859-5.858-4.948-6.173c-5.548-0.543-19.104,1.486-24.396,3.515c-7.436,2.772-11.439,4.258-18.074,9.974&#10;&#9;&#9;c-1.945,1.658-3.719,3.601-5.435,5.716C251.169,122.247,249.338,124.676,249.338,127.505L249.338,127.505z" style=""/>
    <path fill-rule="evenodd" clip-rule="evenodd" d="M184.017,106.929v84.278c0,7.659,7.837,6.087,13.785,6.516&#10;&#9;&#9;c10.296,0.771,22.536,4.001,31.116,9.316c1.945,1.2,4.29,2.601,6.035,4.115l5.548,4.744l0.028-88.393&#10;&#9;&#9;c0-2.972-1.716-5.059-3.689-7.545c-4.976-6.259-11.554-11.146-19.333-14.204c-5.177-2.058-11.668-3.887-17.875-4.458&#10;&#9;&#9;c-2.831-0.314-7.836-0.857-10.667-0.543C185.933,101.099,184.017,103.642,184.017,106.929L184.017,106.929z" style=""/>
    <path fill-rule="evenodd" clip-rule="evenodd" d="M165.313,126.619v89.251c0,2.972,1.459,5.145,3.833,5.916&#10;&#9;&#9;c2.173,0.714,6.663-0.515,8.809-0.972c8.837-1.829,17.989-2.544,26.998-2.829c3.346-0.144,6.463,0.143,9.78,0.229&#10;&#9;&#9;c4.147,0.114,9.152,0.8,13.242,1.629c1.315,0.257,2.917,0.714,4.261,0.857c-0.571-1.115-4.175-3.687-5.405-4.459&#10;&#9;&#9;c-2.773-1.829-6.492-3.829-9.638-5.087c-2.688-1.086-8.78-2.886-11.525-3.4c-2.917-0.515-5.635-1-8.522-1.229&#10;&#9;&#9;c-6.006-0.486-11.697,0.371-16.445-3.516c-4.861-4.059-5.548-7.888-5.548-14.118v-64.387c0-4.944,0.943-4.144-3.604-4.144&#10;&#9;&#9;C167.715,120.361,165.313,122.704,165.313,126.619L165.313,126.619z" style=""/>
    <path fill-rule="evenodd" clip-rule="evenodd" d="M257.661,220.7c2.059-0.172,5.205-1.258,8.579-1.572&#10;&#9;&#9;c2.946-0.257,5.691-0.829,8.895-0.914c6.492-0.144,12.784-0.486,19.276,0.257c6.12,0.657,11.697,1.2,17.617,2.314&#10;&#9;&#9;c2.002,0.4,6.178,1.801,8.466,1.115c2.488-0.801,4.061-2.829,4.061-6.03v-89.251c0-6.401-4.947-6.258-8.894-6.258&#10;&#9;&#9;c-1.173,0-0.944,0.2-0.944,1.457l0.028,66.731c0,6.002-0.601,10.546-5.405,14.289c-2.002,1.572-3.86,2.687-6.893,3.087&#10;&#9;&#9;c-6.463,0.886-9.266-0.028-18.018,1.829c-7.979,1.629-14.786,4.087-21.249,8.402l-4.919,3.801&#10;&#9;&#9;C257.832,220.328,257.89,220.242,257.661,220.7L257.661,220.7z" style=""/>
  </g>
</svg>