<?xml version="1.0" encoding="utf-8"?>
<svg version="1.1" id="Layer_1" x="0px" y="0px" width="360px" height="360px" viewBox="0 0 360 360" enable-background="new 0 0 360 360" xmlns="http://www.w3.org/2000/svg">
  <defs/>
  <g>
    <path fill-rule="evenodd" clip-rule="evenodd" d="M359.695,77.884c-1.472,2.319-7.068,20.279-8.357,24.265&#10;&#9;&#9;c-2.624,8.124-5.445,16.263-8.176,24.448c-5.49,16.475-10.859,32.526-16.305,48.94c-5.111,15.384-8.509,31.828-29.44,35.739&#10;&#9;&#9;c-11.755,2.197-55.453-1.106-64.63,0.742c-0.591,13.762,2.124,20.855-15.835,20.825h-73.305&#10;&#9;&#9;c-18.459,0.015-15.668-6.548-16.335-20.855c-10.526-1.804-49.902,1.409-64.008-0.667c-21.25-3.152-25.072-20.855-29.926-35.42&#10;&#9;&#9;c-10.708-32.177-21.371-65.339-32.595-97.805l-0.561,2.577c-0.516,10.625,0.03,40.226,0.03,51.38v165.22&#10;&#9;&#9;c0,15.309,1.077,28.768,17.261,37.255c7.629,3.986,14.606,3.577,23.935,3.577h275.035c15.077,0,30.048,0.363,39.193-16.143&#10;&#9;&#9;c4.398-7.941,4.141-13.731,4.141-23.629V105.848C359.816,96.951,360.302,86.615,359.695,77.884L359.695,77.884z" style=""/>
    <path fill-rule="evenodd" clip-rule="evenodd" d="M106.016,64.41H18.635c1.274,6.063,11.785,35.784,14.561,44.227l22.054,66.188&#10;&#9;&#9;c6.78,19.567,4.581,15.869,42.924,15.869c7.826,0,22.008,0.834,29.091-0.151c1.062-12.898-3.018-20.885,15.851-20.87h73.836&#10;&#9;&#9;c18.763-0.015,14.895,7.866,15.866,20.84c3.549,0.576,52.131,0.424,58.531,0.182c9.936-0.379,10.709-7.441,13.484-15.641&#10;&#9;&#9;l22.054-66.188c1.911-5.593,14.546-42.241,14.455-44.394l-87.594-0.061c0-10.276,0.668-17.096-3.731-25.235&#10;&#9;&#9;c-3.397-6.275-8.008-10.776-14.895-14.035c-10.162-4.819-41.407-2.864-55.089-2.864c-13.863,0-44.775-1.955-55.074,2.88&#10;&#9;&#9;c-9.98,4.698-16.958,13.777-18.277,24.947C106.229,53.846,106.911,61.288,106.016,64.41L106.016,64.41z" style=""/>
    <path fill-rule="evenodd" clip-rule="evenodd" d="M127.356,55.589v8.821h105.386&#10;&#9;&#9;c0-9.821,1.668-21.052-12.044-21.052H139.37C131.513,43.358,127.356,47.526,127.356,55.589L127.356,55.589z" style=""/>
    <polygon fill-rule="evenodd" clip-rule="evenodd" points="148.471,211.7 150.609,211.791 209.459,211.776 &#10;&#9;&#9;211.629,211.746 211.674,190.739 148.471,190.709 &#9;" style=""/>
  </g>
</svg>