<?xml version="1.0" encoding="utf-8"?>
<svg version="1.1" id="Layer_1" x="0px" y="0px" width="360px" height="360px" viewBox="0 0 360 360" enable-background="new 0 0 360 360" xmlns="http://www.w3.org/2000/svg">
  <defs/>
  <g id="Layer_x0020_1">
    <path d="M36,0h288c19.882,0,36,16.118,36,36v288c0,19.883-16.118,36-36,36H36c-19.882,0-36-16.117-36-36V36&#10;&#9;&#9;C0,16.118,16.118,0,36,0z" style=""/>
  </g>
  <g>
    <g>
      <g>
        <path fill="#FFFFFF" d="M127.241,131.254h-9.076v-15.128c0-5.013-4.064-9.077-9.078-9.077c-5.012,0-9.076,4.063-9.076,9.077&#10;&#9;&#9;&#9;&#9;v24.205c0,5.012,4.064,9.076,9.076,9.076h18.153c5.012,0,9.076-4.063,9.076-9.076&#10;&#9;&#9;&#9;&#9;C136.317,135.317,132.255,131.254,127.241,131.254z"/>
      </g>
    </g>
    <g>
      <g>
        <path fill="#FFFFFF" d="M319.896,189.739l-39.71-46.316c-1.724-2.011-4.241-3.169-6.891-3.169l-30.633,0.002v78.639&#10;&#9;&#9;&#9;&#9;c0,5.012-4.063,9.075-9.075,9.075H104.249V255.2c0,5.014,4.063,9.078,9.076,9.078h26.459c3.929,13.37,16.304,23.162,30.93,23.162&#10;&#9;&#9;&#9;&#9;c14.627,0,27.002-9.792,30.932-23.162h24.175c3.93,13.37,16.304,23.162,30.931,23.162s27-9.792,30.93-23.162h25.326&#10;&#9;&#9;&#9;&#9;c5.011,0,9.075-4.064,9.075-9.078v-59.554C322.082,193.479,321.306,191.383,319.896,189.739z M170.714,269.286&#10;&#9;&#9;&#9;&#9;c-7.767,0-14.086-6.317-14.086-14.085s6.319-14.089,14.086-14.089c7.769,0,14.089,6.321,14.089,14.089&#10;&#9;&#9;&#9;&#9;S178.482,269.286,170.714,269.286z M270.837,255.209c-0.003,7.763-6.32,14.079-14.086,14.079&#10;&#9;&#9;&#9;&#9;c-7.767,0-14.088-6.319-14.088-14.086c0-7.769,6.32-14.088,14.088-14.088c7.765,0,14.082,6.315,14.086,14.079&#10;&#9;&#9;&#9;&#9;c0,0.002,0,0.005,0,0.007C270.837,255.203,270.837,255.206,270.837,255.209z"/>
      </g>
    </g>
    <g>
      <g>
        <path fill="#FFFFFF" d="M86.172,217.781H65.148c-5.014,0-9.078,4.063-9.078,9.078c0,5.011,4.064,9.075,9.078,9.075h21.025&#10;&#9;&#9;&#9;&#9;L86.172,217.781z"/>
      </g>
    </g>
    <g>
      <g>
        <path fill="#FFFFFF" d="M176.184,127.02c0.001,0.016,0.003,0.032,0.005,0.048c-1.871-13.144-7.85-25.81-17.938-35.899&#10;&#9;&#9;&#9;&#9;c-12-12.001-27.956-18.609-44.925-18.609c-16.971,0-32.926,6.609-44.926,18.609c-12,12-18.609,27.955-18.609,44.925&#10;&#9;&#9;&#9;&#9;s6.608,32.925,18.609,44.924c0.154,0.155,0.312,0.304,0.467,0.457H46.995c-5.012-0.001-9.078,4.063-9.078,9.075&#10;&#9;&#9;&#9;&#9;c0,5.014,4.063,9.078,9.077,9.078h57.255v10.19h120.262v-82.796L176.184,127.02z M145.415,168.184&#10;&#9;&#9;&#9;&#9;c-8.572,8.572-19.968,13.292-32.09,13.292c-12.123,0-23.519-4.72-32.09-13.292c-8.571-8.571-13.291-19.968-13.291-32.089&#10;&#9;&#9;&#9;&#9;c0-12.123,4.72-23.519,13.291-32.09c8.572-8.572,19.968-13.292,32.09-13.292c12.122,0,23.518,4.72,32.09,13.292&#10;&#9;&#9;&#9;&#9;C163.108,121.7,163.108,150.49,145.415,168.184z"/>
      </g>
    </g>
  </g>
</svg>