<?xml version="1.0" encoding="utf-8"?>
<svg version="1.1" id="Capa_1" x="0px" y="0px" width="512px" height="512px" viewBox="0 0 512 512" enable-background="new 0 0 512 512" xmlns="http://www.w3.org/2000/svg">
  <defs/>
  <g>
    <path d="M163.268,407.746c-2.895-0.211-5.809-0.317-8.74-0.317H52.727h-15V114.245H0v330.591h240.879l-3.386-3.345&#10;&#9;&#9;C217.337,421.586,191.249,409.784,163.268,407.746L163.268,407.746z" style=""/>
    <path d="M154.528,67.164H67.727V377.43h86.802c31.445,0,61.437,9.769,86.472,27.849V104.69l-3.507-3.464&#10;&#9;&#9;C215.252,79.262,185.788,67.164,154.528,67.164L154.528,67.164z M188.922,307.243h-69.117v-30h69.117V307.243z M188.922,239.774&#10;&#9;&#9;h-69.117v-30h69.117V239.774z M188.922,172.305h-69.117v-30h69.117V172.305z" style=""/>
    <path d="M444.273,377.43V67.164h-86.803c-31.26,0-60.724,12.098-82.966,34.063L271,104.69v300.587&#10;&#9;&#9;c25.035-18.08,55.027-27.85,86.472-27.85h86.802V377.43z M323.078,142.305h69.117v30h-69.117V142.305z M323.078,209.774h69.117v30&#10;&#9;&#9;h-69.117V209.774z M323.078,277.243h69.117v30h-69.117V277.243z" style=""/>
    <path d="M474.273,114.245v293.184H357.472c-31.26,0-60.724,12.098-82.966,34.063l-3.385,3.344H512V114.245H474.273z" style=""/>
  </g>
</svg>