<?xml version="1.0" encoding="utf-8"?>
<svg version="1.1" id="Layer_1" x="0px" y="0px" width="360px" height="360px" viewBox="0 0 360 360" enable-background="new 0 0 360 360" xmlns="http://www.w3.org/2000/svg">
  <defs/>
  <g>
    <path fill-rule="evenodd" clip-rule="evenodd" d="M71.787,141.37c4.976,1.374,4.845,7.426,0.491,10.238&#10;&#9;&#9;c-12.308,3.664-25.205,8.57-37.464,12.757c-5.516,1.897-4.354,0.949-3.568,3.173c0.262,2.241,5.336,11.285,6.514,12.512&#10;&#9;&#9;c3.306,0.703,15.124-4.252,19.182-5.609c8.38-2.83,13.536-5.839,19.281-3.354l1.08,2.503c0,4.678-0.082,6.002-4.108,7.441&#10;&#9;&#9;l-24.698,8.014c-0.851,0.36-0.556,0.245-1.26,0.639c-0.082,0.049-0.311,0.376-0.376,0.261c-0.065-0.114-0.262,0.181-0.376,0.295&#10;&#9;&#9;c-13.715,0.589-27.922,0-41.818,0.426h350.632c-1.751-1.146-5.646-0.524-7.971-0.524c-3.258,0-6.53,0-9.804,0&#10;&#9;&#9;c-6.188,0-13.192-0.311-19.28,0.115c-0.786-9.29,0.131-20.134,0.163-29.603c0.017-9.127-0.475-19.136-0.458-28.834&#10;&#9;&#9;c0.017-12.986-3.388-12.921-7.185-22.325c-2.881-7.147-7.972-13.199-10.36-19.904c2.308-0.196,4.959,0.229,6.432-0.719l0.099-0.311&#10;&#9;&#9;c6.203-0.065,5.385-6.117,5.4-11.563c0.017-6.624-1.489-8.668-8.281-8.734c-10.835-0.114-23.062-0.441-33.782,0.033&#10;&#9;&#9;c-12.487,0.507-25.843,0.098-38.413,0.082c-6.728,0-11.98-0.867-12.374,6.853c-0.294,6.182-1.113,12.364,5.401,13.558&#10;&#9;&#9;c1.637,1.341,4.402,0.801,6.53,0.949l-15.925,30.895c-0.376,0.638-0.327,0.572-0.736,1.096c-0.573,0.72-0.459,0.572-0.998,1.063&#10;&#9;&#9;c0.18-20.607,0.393-32.694-11.425-46.285c-4.55-5.233-8.511-9.731-11.375-17.451c-3.601-9.797-2.636-15.112-3.061-26.233&#10;&#9;&#9;l2.192-0.916c0.934-5.152,0.77-27.182-0.294-29.995c-3.159-0.981-35.484-1.129-37.53,0.147c-2.7,2.895-1.113-5.773-1.129-0.065&#10;&#9;&#9;c0,6.215-0.688,25.792,0.507,30.093l2.226,0.769c-0.344,5.086,0.082,10.663-0.589,15.374c-0.556,3.909-3.175,11.334-3.175,13.133&#10;&#9;&#9;l-3.52,6.019c-9.133,14.769-18.772,14.981-18.756,47.119c0,13.64,0.638,66.827-0.147,75.642l-5.254,0.312&#10;&#9;&#9;c-1.227-3.189-10.9-61.005-11.539-65.126c-1.898-12.479-3.617-20.231-11.915-26.299c-13.961-10.189-21.916-4.465-30.394-3.353&#10;&#9;&#9;c-4.468-20.46,0.933-43.145-2.079-46.71c-2.111-2.486-6.678-2.486-8.74,0.017c-1.997,2.42-1.85,7.032-2.308,10.451&#10;&#9;&#9;c-1.097,8.21-0.049,16.519-0.9,24.402c-2.685-4.383-7.84-21.899-9.952-27.983c-1.702-4.89-3.159-8.979-4.894-14.18&#10;&#9;&#9;c-1.571-4.711-2.537-11.645-6.678-12.97c-14.256-4.53-3.552,19.168-1.899,23.993c1.555,4.481,9.313,25.694,9.575,28.818&#10;&#9;&#9;c-7.513-9.486-14.371-26.086-30.705-33.234c-8.216-3.598-12.193,5.021-7.365,9.143c1.718,1.472,4.501,2.437,6.481,3.86&#10;&#9;&#9;c2.03,1.456,4.354,3.549,5.909,5.07c8.331,8.145,22.194,30.551,24.207,39.596c-7.136,3.646-16.531,5.282-21.114,18.301&#10;&#9;&#9;c-1.817,5.152-2.258,11.563-0.622,17.009c0.704,2.388,4.795,11.857,6.432,13.067c2.111,1.963,6.891-0.621,11.964-2.371&#10;&#9;&#9;l23.356-7.851C63.702,142.564,66.583,140.798,71.787,141.37L71.787,141.37z M275.688,190.321&#10;&#9;&#9;c0.622-7.262,0.164-16.421,0.164-23.895c0-6.723-0.786-18.563-0.229-24.5l-0.114-0.082c3.649-0.18,7.512-0.049,11.194-0.049&#10;&#9;&#9;c3.192,0,8.249-1.031,9.854,1.619c1.538,2.682,0.72,40.56,0.54,46.873L275.688,190.321z M160.906,129.219&#10;&#9;&#9;c3.404-0.082,7.021-1.243,10.704-0.115c0,10.32,0,20.657,0,30.993c0,5.021-0.524,9.765-0.541,14.998&#10;&#9;&#9;c-0.016,5.331,0.77,9.42,0.426,15.177l-13.994-0.163l0.032-56.572c0.18-1.39,0.344-1.963,1.031-2.862&#10;&#9;&#9;C159.842,129.055,159.679,129.48,160.906,129.219L160.906,129.219z" style=""/>
    <path fill-rule="evenodd" clip-rule="evenodd" d="M296.753,359.693c2.831-1.309,5.123-1.309,8.15-3.14&#10;&#9;&#9;c8.2-4.906,10.246-12.986,12.227-22.456c2.685-12.789,5.467-24.68,8.348-37.649c2.831-12.707,5.106-25.693,8.166-38.106&#10;&#9;&#9;c1.375-5.626,5.614-22.963,7.48-32.547h10.017c4.583,0,8.314-3.745,8.314-8.309v-21.393c0-4.579-3.731-8.308-8.314-8.308H14.404&#10;&#9;&#9;c-4.566,0-8.314,3.729-8.314,8.308v21.393c0,4.563,3.748,8.309,8.314,8.309h7.333l23.569,106.912&#10;&#9;&#9;c1.506,6.624,2.275,12.644,5.565,17.468c8.347,12.233,21.801,9.535,36.057,9.535h29.771c5.794,0.556,12.177,0,18.724,0h0.229h0.868&#10;&#9;&#9;h0.213h0.868h0.212h0.867h0.213h0.867h0.213h0.867h0.213h0.868h0.229H143h0.229h0.868h0.212h0.868h0.213h0.867h0.213h0.868h0.212&#10;&#9;&#9;h0.868h0.213h0.867h0.229h0.868h0.213h0.867h0.213h0.868h0.213h0.867h0.213h0.868h0.212h0.867h0.213&#10;&#9;&#9;c27.07,0,54.715,0.523,81.835,0.163C257.685,360.005,277.391,360.119,296.753,359.693L296.753,359.693z M83.015,248.3&#10;&#9;&#9;c-6.923,2.519-3.109,9.6-1.113,20.23l11.85,56.18c0.835,3.893,3.126,6.983,8.021,5.446c6.874-2.159,1.816-14.801,0.654-20.656&#10;&#9;&#9;l-9.346-44.813C91.477,257.099,90.757,245.47,83.015,248.3L83.015,248.3z M144.833,247.221c-5.63,2.583-3.584,10.172-2.684,19.92&#10;&#9;&#9;l3.224,46.415c0.491,6.493-0.262,18.465,8.675,15.292c3.748-1.324,3.862-4.743,3.388-8.814l-2.259-34.738&#10;&#9;&#9;c-0.54-7.802-1.162-15.57-1.735-23.094C153.017,256.755,153.737,243.132,144.833,247.221L144.833,247.221z M212.643,247.58&#10;&#9;&#9;c-3.045,1.881-3.29,1.881-3.585,8.881c-0.408,9.928-5.27,65.6-4.238,69.066c0.933,3.092,4.942,5.136,8.478,2.994&#10;&#9;&#9;c4.338-2.634,3.453-14.884,3.862-20.706c0.491-6.885,4.502-54.266,3.454-57.472C219.729,247.629,216.128,245.438,212.643,247.58&#10;&#9;&#9;L212.643,247.58z M275.803,248.25c-4.124,1.473-3.993,3.664-4.959,8.374c-0.802,3.926-1.604,7.671-2.422,11.449l-9.428,44.763&#10;&#9;&#9;c-0.639,3.287-2.275,8.488-2.259,11.694c0.032,3.991,3.175,7.098,7.84,5.626c3.649-1.161,3.879-5.185,4.615-8.881&#10;&#9;&#9;c0.77-3.729,1.687-7.245,2.439-11.072c1.505-7.67,3.06-14.769,4.697-22.521l6.923-34.117&#10;&#9;&#9;C283.103,249.641,279.829,246.827,275.803,248.25L275.803,248.25z" style=""/>
  </g>
</svg>