<?xml version="1.0" encoding="utf-8"?>
<svg version="1.1" id="Layer_1" x="0px" y="0px" width="360px" height="360px" viewBox="0 0 360 360" enable-background="new 0 0 360 360" xmlns="http://www.w3.org/2000/svg">
  <defs/>
  <g>
    <g>
      <path fill-rule="evenodd" clip-rule="evenodd" d="M76.044,140.045c-0.31,3.697,2.262,9.388,3.643,12.875&#10;&#9;&#9;&#9;c3.567,8.958,9.876,17.086,17.13,23.499c4.314,3.817,9.262,7.166,14.336,10.224c0.976,0.589,1.742,0.848,2.642,1.405&#10;&#9;&#9;&#9;c3.49,2.152,7.431,3.608,11.213,5.134c4.84,1.95,9.838,3.798,15.033,5.273c4.245,1.202,8.438,2.595,12.784,3.462l6.684,1.583&#10;&#9;&#9;&#9;c2.078,0.52,4.377,0.918,6.835,1.349c2.148,0.373,4.612,1.101,6.684,1.411c2.477,0.361,4.517,0.747,7.07,1.063&#10;&#9;&#9;&#9;c2.224,0.278,4.992,0.646,7.253,1.058c4.872,0.886,23.161,3.5,28.686,3.779c2.351,0.12,4.992,0.468,7.336,0.766&#10;&#9;&#9;&#9;c2.331,0.298,5.455,0.267,7.868,0.551c4.809,0.563,9.99,0.994,14.97,1.14c2.578,0.076,4.96,0.424,7.596,0.456l5.859,0.26&#10;&#9;&#9;&#9;c1.147,0.101,1.242-0.146,1.729,0.519c-2.28,1.07-25.226,3.368-29.045,3.576c-5.094,0.272-10.333,0.672-15.42,0.918&#10;&#9;&#9;&#9;c-12.854,0.634-27.178,0.323-39.879-0.911l-26.715-3.817c-3.592-0.48-6.715-1.43-10.276-2.038l-7.38-1.798&#10;&#9;&#9;&#9;c-5.359-1.488-11.295-2.981-16.401-5.185l-4.416-1.634c-1.679-0.601-2.826-1.284-4.403-1.88c-2.99-1.133-5.436-2.62-8.21-4.076&#10;&#9;&#9;&#9;c-2.755-1.443-4.846-3.076-7.627-4.653c-1.99-1.127-3.548-2.576-5.265-3.906c-6.075-4.709-12.005-11.254-15.724-18.009&#10;&#9;&#9;&#9;c-1.881-3.412-3.554-6.71-4.821-10.572c-0.133-0.399-0.197-0.861-0.349-1.235l-0.824-0.93c-0.753,1.335-2.895,8.787-3.243,10.597&#10;&#9;&#9;&#9;c-1.736,8.926-0.279,14.509-3.662,24.081c-1.463,4.153-1.901,6.337-2.426,11.413l-0.349,6.489&#10;&#9;&#9;&#9;c-0.013,3.52-0.545,10.071,0.671,13.116c0.741,1.861,1.229,3.026,2.661,4.267c3.725,3.235,10.009,4.242,14.919,5.831&#10;&#9;&#9;&#9;c1.888,0.607,3.959,0.943,5.803,1.387c1.742,0.418,4.745,0.222,6.734,0.184c4.669-0.076,2.826,1.431,4.682,2.266&#10;&#9;&#9;&#9;c1.743,0.779,4.758,0.311,6.044-0.469c1.248-0.753,2.433-2.811,4.416-2.373c1.951,0.424,0.247,2.981,3.839,3.152&#10;&#9;&#9;&#9;c2.889,0.139,3.637-0.538,5.056-2.007c1.343-1.38,2.813-2.134,4.416-0.411c5.049,5.405,8.761,0.525,9.591,0.322&#10;&#9;&#9;&#9;c1.451-0.354,3.446,1.431,5.011,1.817c7.925,1.975,7.083-2.969,10.738-2.21c2.205,0.463,1.635,1.988,4.98,2.008&#10;&#9;&#9;&#9;c7.101,0.03,5.644-5.4,9.553-2.913c3.06,1.95,7.013,2.305,10.301,0.766c5.1-2.386,3.77,1.488,5.803,2.337&#10;&#9;&#9;&#9;c1.153,0.481,3.148,0.304,4.53,0.222c2.274-0.14,5.499-2.881,7.481-0.842c1.534,1.576,1.103,2.671,7.14,0.854&#10;&#9;&#9;&#9;c4.556-1.367,3.137,0.349,4.974,1.355c0.538,0.297,1.21,0.354,2.053,0.418c2.344,0.184,6.841,0.48,7.874-1.349&#10;&#9;&#9;&#9;c0.552-0.981,0.836-2.438,2.724-1.703c1.471,0.576,0.532,1.791,2.173,2.564c4.784,2.266,9.991-1.286,12.48-0.88&#10;&#9;&#9;&#9;c0.799,0.126,2.085,0.88,3.503,1.17c2.249,0.463,7.09,0.361,9.027-0.297c1.863-0.633,3.7-3.981,6.241-2.64&#10;&#9;&#9;&#9;c1.564,0.823,0.507,1.342,3.37,1.398c12.505,0.24,9.584-7.615,13.304-5.127c1.133,0.76,1.266,1.614,3.23,1.709&#10;&#9;&#9;&#9;c3.098,0.152,5.258-1.158,6.214-3.216c0.558-1.203,0.685-2.248,1.426-3.267c0.779-1.083,1.305-1.696,3.32-1.45&#10;&#9;&#9;&#9;c1.007,0.514,0.266,3.938,5.676,1.703c6.411-2.646,4.219-5.823,6.373-6.748c2.268-0.975,4.827,2.849,8.938-3.608&#10;&#9;&#9;&#9;c2.547-4.007,5.689-5.545,8.324-9.306c0.685-0.981,2.889-4.507,3.212-5.659c1.615-5.856,2.027-10.218,0.203-16.092&#10;&#9;&#9;&#9;c-1.001-3.21-1.571-6.837-3.699-9.527c-1.857-2.354-3.593-3.095-7.058-3.45l-37.813-4.14c-1.565-0.361-8.198-1.304-9.693-1.222&#10;&#9;&#9;&#9;c0.171,1.937,0.641,3.754,0.913,5.66c0.24,1.69,0.798,3.792,0.931,5.57c0.19,2.438,0.057,3.823-1.591,4.894&#10;&#9;&#9;&#9;c-1.685,1.095-4.035,0.52-5.022-0.734c-1.375-1.729-0.843-2.767-1.389-5.14c-0.487-2.14-1.21-9.293-2.122-10.793&#10;&#9;&#9;&#9;c-1.039-1.715-2.255-1.924-4.104-2.558c-4.707-1.614-1.869,4.666-1.812,8.54c0.076,4.792-5.512,5.222-7.241,2.07&#10;&#9;&#9;&#9;c-0.723-1.323-1.597-8.837-2.008-11.009c-0.425-2.228-0.913-3.032-2.434-4.02c-0.849-0.551-3.857-2.146-4.902-1.424&#10;&#9;&#9;&#9;c-1.597,2.621,2.477,7.267-0.831,10.426c-1.488,1.431-5.936,2.07-6.646-4.292c-0.259-2.304-1.178-8.432-1.977-10.426&#10;&#9;&#9;&#9;c-0.981-2.469-5.245-5.539-7.329-5.279c-0.228,3.26,1.812,9.122,0.76,11.477c-1.463,3.292-6.183,2.963-7.254-0.867&#10;&#9;&#9;&#9;c-0.475-1.703-0.499-3.633-0.918-5.349l-2.28-13.288c-0.196-1.393-0.178-1.431-0.994-2.443&#10;&#9;&#9;&#9;c-6.215-7.71-17.34-22.903-28.179-22.865c-1.299,0.006-3.573,0.513-4.498,0.975c-1.387,0.69-2.147,1.165-3.269,2.102&#10;&#9;&#9;&#9;c-5.309,4.45-4.485,10.059-2.553,16.066c0.241,0.753,0.577,1.19,0.798,1.81c0.722,2.039,2.287,3.267,3.142,5.191&#10;&#9;&#9;&#9;c1.653,3.709-1.261,5.007-3.357,6.672c-5.949,4.716-13.203,9.679-20.329,12.528c-3.947,1.583-7.907,3.058-12.056,3.899&#10;&#9;&#9;&#9;c-1.064,0.215-4.276,0.203-5.48,0.171c-3.003-0.083-6-1.02-8.216-2.685c-2.756-2.063-2.478-3.943-3.934-7.033&#10;&#9;&#9;&#9;c-2.788-5.913-7.166-17.048-14.014-18.573C79.579,138.171,79.541,139.222,76.044,140.045L76.044,140.045z" style=""/>
    </g>
  </g>
  <g>
    <path d="M179.999,25c41.402,0,80.326,16.123,109.603,45.398C318.877,99.674,335,138.598,335,180&#10;&#9;&#9;c0,41.401-16.123,80.325-45.399,109.602C260.325,318.877,221.401,335,179.999,335c-41.402,0-80.325-16.123-109.601-45.398&#10;&#9;&#9;C41.123,260.325,25,221.401,25,180c0-41.402,16.123-80.326,45.398-109.602C99.673,41.123,138.597,25,179.999,25 M179.999,0&#10;&#9;&#9;C80.588,0,0,80.589,0,180c0,99.41,80.588,180,179.999,180S360,279.41,360,180C360,80.589,279.41,0,179.999,0L179.999,0z"/>
  </g>
</svg>