<?xml version="1.0" encoding="utf-8"?>
<svg version="1.1" id="Layer_1" x="0px" y="0px" width="360px" height="360px" viewBox="0 0 360 360" enable-background="new 0 0 360 360" xmlns="http://www.w3.org/2000/svg">
  <defs/>
  <g>
    <path fill-rule="evenodd" clip-rule="evenodd" d="M102.005,290.242L101.973,360l132.063-0.017v-73.791&#10;&#9;&#9;c-33.64-15.115-34.143,17.383-68.333,13.446c-22.778-2.625-24.756-21.207-48.604-16.881&#10;&#9;&#9;C108.798,284.265,105.832,288.429,102.005,290.242L102.005,290.242z" style=""/>
    <path fill-rule="evenodd" clip-rule="evenodd" d="M101.973,211.688l0.082,33.956&#10;&#9;&#9;c3.21-0.956,5.949-2.706,9.905-3.759c35.342-9.413,39.509,22.745,67.41,14.79c12.191-3.482,22.988-20.606,47.242-15.584&#10;&#9;&#9;c2.318,0.47,5.674,1.718,7.36,1.686c0.648-10.677-0.924-33.081,1.135-40.599c1.232-4.503,3.048-6.432,4.555-10.076l-118.72-0.13&#10;&#9;&#9;C109.171,191.972,101.973,199.78,101.973,211.688L101.973,211.688z" style=""/>
    <path fill-rule="evenodd" clip-rule="evenodd" d="M75.336,203.976l14.867-0.08c1.103-1.928,1.524-4.18,2.513-6.27&#10;&#9;&#9;c0.989-2.106,2.659-3.84,2.902-5.589c-9.176-0.421-25.388,1.619-32.359-2.009c-7.344-3.808-12.597-14.224-7.068-23.798&#10;&#9;&#9;c3.729-6.48,12.256-9.704,20.184-14.094l89.264-49.07c3.647-2.009,7.068-4.147,11.057-6.124c4.879-2.43,9.192,1.393,12.92,3.45&#10;&#9;&#9;c9.938,5.492,106.497,57.527,111.021,61.625c7.133,6.48,7.149,18.047,0.356,24.851c-10.635,10.627-33.283,1.23-44.989,7.111&#10;&#9;&#9;c-4.036,2.025-7.441,5.46-8.365,9.979c12.841,0.081,26.556,0.405,39.331-0.016c24.236-0.827,37.385-25.143,28.16-44.988&#10;&#9;&#9;c-4.571-9.801-11.364-13.349-21.027-18.387l-50.857-27.54c-16.893-9.348-34.288-18.274-51.165-27.703&#10;&#9;&#9;c-2.383-1.328-10.651-6.561-12.92-5.978c-1.638,0.421-10.781,5.783-12.71,6.852L64.799,141.136&#10;&#9;&#9;c-9.177,4.876-15.872,8.489-20.411,18.986C36.298,178.867,48.392,203.976,75.336,203.976L75.336,203.976z" style=""/>
    <path fill-rule="evenodd" clip-rule="evenodd" d="M102.103,260.142l-0.097,15.569&#10;&#9;&#9;c5.869-2.025,8.543-4.31,16.212-5.055c7.539-0.745,13.407,0,19.568,2.122c12.305,4.244,24.869,22.794,47.031,11.761&#10;&#9;&#9;c4.815-2.397,8.317-6.236,12.938-8.828c13.861-7.728,23.604-5.46,36.218-2.771l0.016-16.67c-11.381-7.501-25.68-3.71-34.24,2.56&#10;&#9;&#9;c-15.287,11.211-31.045,16.103-49.964,5.347c-7.896-4.488-15.694-14.743-32.295-11.486&#10;&#9;&#9;C109.009,254.359,107.826,257.178,102.103,260.142L102.103,260.142z" style=""/>
    <path fill-rule="evenodd" clip-rule="evenodd" d="M156.024,23.814c15.937,0.179,10.457,1.167,13.083-4.779&#10;&#9;&#9;c2.205-5.006,7.831-8.019,13.553-6.755c7.247,1.604,11.965,10.125,7.896,17.399c-5.27,9.429-14.769,3.516-16.39,10.79&#10;&#9;&#9;c-0.746,3.337-0.308,22.923-0.114,27.476c2.14-0.098,3.243-1.896,5.95-1.896c2.512,0,3.891,1.701,5.949,1.896l0.049-19.7&#10;&#9;&#9;c0.746-2.819,13.084-3.159,17.055-17.383c2.967-10.708-1.799-20.574-7.408-25.11C179.37-7.354,156.64,3.322,156.024,23.814&#10;&#9;&#9;L156.024,23.814z" style=""/>
    <path fill-rule="evenodd" clip-rule="evenodd" d="M246.05,311.982c14.445,0,12.013-3.077,12.013-18.565V215.98&#10;&#9;&#9;H246.05V311.982z" style=""/>
  </g>
</svg>