<?xml version="1.0" encoding="utf-8"?>
<svg version="1.1" id="Layer_1" x="0px" y="0px" width="360px" height="360px" viewBox="0 0 360 360" enable-background="new 0 0 360 360" xmlns="http://www.w3.org/2000/svg">
  <defs/>
  <g id="Layer_x0020_1">
    <path d="M36,0h288c19.882,0,36,16.118,36,36v288c0,19.883-16.118,36-36,36H36c-19.883,0-36-16.117-36-36V36&#10;&#9;&#9;C0,16.118,16.117,0,36,0z" style=""/>
  </g>
  <g>
    <path fill-rule="evenodd" clip-rule="evenodd" fill="#FFFFFF" d="M180.04,216.469c32.992,0,65.985,0.146,98.977-0.063&#10;&#9;&#9;c15.43-0.099,29.178,9.607,33.979,23.93c4.898,14.615-0.428,30.841-13.396,39.792c-6.22,4.293-13.152,6.188-20.67,6.187&#10;&#9;&#9;c-47.583-0.01-95.165-0.005-142.749-0.005c-18.501,0-37.003,0.015-55.505-0.006c-10.953-0.011-20.072-4.146-27.233-12.433&#10;&#9;&#9;c-4.182-4.839-6.828-10.455-7.768-16.807c-2.008-13.558,2.497-24.652,13.031-33.235c5.836-4.756,12.702-7.295,20.253-7.313&#10;&#9;&#9;c33.693-0.076,67.388-0.033,101.082-0.033C180.04,216.478,180.04,216.474,180.04,216.469z M146.737,273.486&#10;&#9;&#9;c12.264-0.063,22.148-10.005,22.101-22.229c-0.046-12.088-10.086-22.087-22.166-22.075c-12.234,0.013-22.135,9.951-22.116,22.202&#10;&#9;&#9;C124.576,263.672,134.489,273.55,146.737,273.486z M213.35,273.485c12.323-0.096,22.118-9.998,22.021-22.265&#10;&#9;&#9;c-0.095-12.274-10.086-22.149-22.291-22.038c-12.181,0.113-22.1,10.209-21.99,22.385&#10;&#9;&#9;C191.198,263.705,201.228,273.58,213.35,273.485z M279.82,273.46c12.201,0.037,22.127-9.781,22.216-21.976&#10;&#9;&#9;c0.089-12.148-9.968-22.288-22.12-22.303c-12.213-0.015-22.201,9.993-22.168,22.209C257.781,263.666,267.54,273.424,279.82,273.46z&#10;&#9;&#9; M102.191,251.117c-0.25-12.44-10.25-22.141-22.588-21.911c-12.036,0.224-21.922,10.416-21.709,22.381&#10;&#9;&#9;c0.219,12.303,10.367,22.191,22.468,21.894C92.687,273.176,102.434,263.191,102.191,251.117z"/>
    <path fill-rule="evenodd" clip-rule="evenodd" fill="#FFFFFF" d="M148.327,73.866c0,0.726,0,1.272,0,1.819&#10;&#9;&#9;c0,9.227-0.011,18.454,0.002,27.681c0.007,5.147,3.192,8.355,8.343,8.361c15.546,0.017,31.091,0.018,46.637-0.001&#10;&#9;&#9;c5.061-0.007,8.26-3.218,8.273-8.267c0.025-9.227,0.018-18.454,0.023-27.681c0-0.594,0-1.189,0-1.93&#10;&#9;&#9;c0.659-0.043,1.193-0.108,1.728-0.108c4.564-0.008,9.128-0.024,13.69,0c7.898,0.042,13.791,4.494,15.902,12.121&#10;&#9;&#9;c0.394,1.426,0.48,2.975,0.482,4.468c0.029,26.578,0.026,53.155,0.024,79.733c0,2.094-0.021,2.108-2.053,2.108&#10;&#9;&#9;c-41.02,0.002-82.04-0.007-123.06,0.029c-1.505,0.001-1.845-0.531-1.843-1.921c0.032-26.627,0.01-53.255,0.034-79.883&#10;&#9;&#9;c0.007-7.709,3.984-13.418,11.013-15.844c1.307-0.451,2.736-0.724,4.115-0.751c5.113-0.102,10.229-0.07,15.344-0.078&#10;&#9;&#9;C147.375,73.722,147.764,73.804,148.327,73.866z"/>
    <path fill-rule="evenodd" clip-rule="evenodd" fill="#FFFFFF" d="M242.993,188.099c-1.711,7.396-7.894,12.512-15.187,12.52&#10;&#9;&#9;c-31.933,0.039-63.864,0.039-95.795-0.002c-7.251-0.01-13.895-5.596-15.001-12.518&#10;&#9;&#9;C158.978,188.099,200.917,188.099,242.993,188.099z"/>
    <path fill-rule="evenodd" clip-rule="evenodd" fill="#FFFFFF" d="M164.16,73.735c0.678,0,1.17,0,1.662,0&#10;&#9;&#9;c9.418-0.007,18.838,0.01,28.256-0.049c1.344-0.008,1.794,0.308,1.775,1.736c-0.083,6.312-0.064,12.625-0.013,18.937&#10;&#9;&#9;c0.011,1.235-0.347,1.631-1.607,1.626c-9.469-0.04-18.938-0.036-28.406,0.025c-1.382,0.009-1.791-0.392-1.775-1.78&#10;&#9;&#9;c0.07-6.312,0.029-12.625,0.033-18.937C164.086,74.85,164.127,74.407,164.16,73.735z"/>
    <path fill-rule="evenodd" clip-rule="evenodd" fill="#FFFFFF" d="M140.377,251.331c0.012-3.494,2.809-6.328,6.26-6.34&#10;&#9;&#9;c3.441-0.013,6.455,2.984,6.44,6.406c-0.016,3.469-2.998,6.36-6.5,6.302C143.058,257.642,140.366,254.876,140.377,251.331z"/>
    <path fill-rule="evenodd" clip-rule="evenodd" fill="#FFFFFF" d="M219.565,251.342c0.007,3.543-2.693,6.287-6.232,6.334&#10;&#9;&#9;c-3.521,0.047-6.481-2.841-6.478-6.321c0.003-3.458,2.992-6.423,6.447-6.395C216.734,244.988,219.559,247.868,219.565,251.342z"/>
    <path fill-rule="evenodd" clip-rule="evenodd" fill="#FFFFFF" d="M286.22,251.438c-0.044,3.51-2.989,6.329-6.519,6.238&#10;&#9;&#9;c-3.521-0.092-6.198-2.87-6.161-6.397c0.035-3.46,2.893-6.299,6.328-6.288C283.352,245.002,286.263,247.956,286.22,251.438z"/>
    <path fill-rule="evenodd" clip-rule="evenodd" fill="#FFFFFF" d="M86.364,251.421c-0.032,3.554-2.791,6.282-6.326,6.257&#10;&#9;&#9;c-3.483-0.024-6.334-2.863-6.338-6.311c-0.005-3.479,2.991-6.438,6.461-6.379C83.631,245.048,86.396,247.915,86.364,251.421z"/>
  </g>
</svg>