<?xml version="1.0" encoding="utf-8"?>
<svg version="1.1" id="Capa_1" x="0px" y="0px" width="360px" height="360px" viewBox="0 0 360 360" enable-background="new 0 0 360 360" xmlns="http://www.w3.org/2000/svg">
  <defs/>
  <g>
    <g>
      <g>
        <path d="M277.156,21.288c-28.053-28.052-73.661-28.145-101.713,0l-70.409,70.41L206.84,193.503l70.316-70.502&#10;&#9;&#9;&#9;&#9;C305.208,94.856,305.208,49.34,277.156,21.288z M204.981,62.902l-32.046,31.582l-0.093,0.093&#10;&#9;&#9;&#9;&#9;c-3.715,3.623-9.567,3.53-13.097-0.186c-3.623-3.715-3.53-9.567,0.186-13.097l32.14-31.582l0.092-0.093&#10;&#9;&#9;&#9;&#9;c3.717-3.623,9.568-3.53,13.098,0.186C208.79,53.428,208.697,59.373,204.981,62.902z" style=""/>
      </g>
    </g>
  </g>
  <g>
    <g>
      <path d="M91.843,104.795L20.97,175.762c-27.959,28.145-27.959,73.567,0,101.713c28.331,27.959,73.939,27.959,102.27,0&#10;&#9;&#9;&#9;l70.502-70.781L91.843,104.795z"/>
    </g>
  </g>
  <g>
    <g>
      <path d="M345.15,244.685L244.924,345.004c28.516,21.829,68.737,19.229,94.096-6.131&#10;&#9;&#9;&#9;C364.471,313.516,367.071,273.201,345.15,244.685z"/>
    </g>
  </g>
  <g>
    <g>
      <path d="M288.488,216.818c-39.479,0-71.524,31.953-71.524,71.523c0,15.791,5.202,31.118,14.77,43.564&#10;&#9;&#9;&#9;L331.96,231.68C319.513,222.02,304.279,216.818,288.488,216.818z" style=""/>
    </g>
  </g>
</svg>