<?xml version="1.0" encoding="utf-8"?>
<svg version="1.1" id="Layer_1" x="0px" y="0px" width="360px" height="360px" viewBox="0 0 360 360" enable-background="new 0 0 360 360" xmlns="http://www.w3.org/2000/svg">
  <defs/>
  <g>
    <path fill-rule="evenodd" clip-rule="evenodd" d="M170.301,0.59c-27.116,2.7-46.915,6.554-71.101,19.01&#10;&#9;&#9;c-39.445,20.314-69.977,53.07-86.147,93.76c-19.783,49.778-16.61,100.147,6.332,147.482c9.687,19.996,24.839,38.688,38.686,51.325&#10;&#9;&#9;c94.755,86.433,242.741,50.127,289.033-65.223c28.134-70.138,8.958-149.561-45.077-198.883&#10;&#9;&#9;c-14.727-13.442-32.81-25.974-55.159-34.849C226.401,5.081,195.732-1.928,170.301,0.59L170.301,0.59z M169.026,14.168&#10;&#9;&#9;c-15.851,1.973-18.872,1.533-35.375,6.145C84.428,34.089,43.131,72.67,24.912,119.808c-7.698,19.936-13.437,47.274-10.962,71.715&#10;&#9;&#9;c4.95,48.898,21.954,80.637,54.46,111.936c24.824,23.896,74.608,47.594,123.056,42.678c48.828-4.945,80.879-21.847,112.063-54.42&#10;&#9;&#9;c24.869-25.989,46.627-72.899,42.648-122.844c-5.313-66.603-46.216-120.386-105.732-143.811&#10;&#9;&#9;C221.527,17.613,191.603,11.347,169.026,14.168L169.026,14.168z" style=""/>
    <path fill-rule="evenodd" clip-rule="evenodd" d="M114.839,316.203l4.676-91.044&#10;&#9;&#9;c-18.037-5.72-23.837-10.878-32.688-24.715c-7.091-11.075-11.327-29.72-10.826-46.561c0.486-16.491,7.409-31.284,15.714-41.676&#10;&#9;&#9;c6.802-8.512,20.42-20.709,37.456-20.664c28.635,0.091,52,33.316,52.942,61.793c1.078,31.997-11.281,63.538-43.438,71.731&#10;&#9;&#9;l5.177,102.014c8.487,3.868,33.462,4.794,43.726,4.399c12.42-0.471,24.096-2.746,35.877-6.235c1.229-0.364,4.221-0.881,4.677-1.896&#10;&#9;&#9;l4.919-90.241c-5.436-2.563-6.302-0.909-15.593-6.902c-12.754-8.223-16.14-15.096-16.321-28.963&#10;&#9;&#9;c-0.471-35.759,5.344-70.411,8.624-105.639l9.488-0.046v101.726l9.201,0.228l0.121-101.847l10.112-0.197l0.243,101.922l9.215,0.106&#10;&#9;&#9;l0.106-101.922l10.324-0.122c0.851,3.671-0.03,92.744,0.365,101.937l9.276,0.046L268.26,91.68l7.288-0.136l4.585,40.311&#10;&#9;&#9;c2.247,17.872,4.281,45.742,4.069,64.312c-0.091,8.087-0.273,13.609-4.357,18.935c-6.514,8.511-15.259,14.58-27.587,17.887&#10;&#9;&#9;l3.917,77.815c6.027-1.533,22.41-15.506,27.784-20.437c3.098-2.837,5.087-5.144,8.047-8.011&#10;&#9;&#9;c9.109-8.814,20.542-26.944,25.932-38.945c14.728-32.755,18.979-70.517,6.908-108.855c-14.97-47.593-51.149-82.427-96.288-98.129&#10;&#9;&#9;c-15.547-5.401-38.17-9.239-56.89-7.692c-40.219,3.353-67.017,16.249-91.598,37.549c-20.664,17.918-40.31,45.196-48.22,81.29&#10;&#9;&#9;c-8.457,38.596-0.516,78.71,16.033,106.853c13.876,23.577,26.524,35.866,46.353,50.491&#10;&#9;&#9;C96.832,306.813,112.319,316.674,114.839,316.203L114.839,316.203z" style=""/>
    <path fill-rule="evenodd" clip-rule="evenodd" d="M95.937,135.162c-6.635,6.068-12.389,30.434-8.487,43.906&#10;&#9;&#9;c1.792,6.235,4.707,13.123,8.366,18.843c2.885,4.506,16.868,18.13,19.146,13.594c0.729-1.441-5.086-7.146-8.107-12.259&#10;&#9;&#9;c-3.568-6.054-5.512-12.243-7.986-19.359c-3.75-10.787-3.887-24.957-1.26-36.76c0.395-1.76,1.321-4.111,1.534-5.462&#10;&#9;&#9;C99.611,134.889,98.092,133.189,95.937,135.162L95.937,135.162z" style=""/>
  </g>
</svg>