<?xml version="1.0" encoding="utf-8"?>
<svg version="1.1" id="Layer_1" x="0px" y="0px" width="360px" height="360px" viewBox="76 76 360 360" enable-background="new 76 76 360 360" xmlns="http://www.w3.org/2000/svg">
  <defs/>
  <g id="Layer_x0020_1">
    <path d="M112,76h288c19.882,0,36,16.118,36,36v288c0,19.883-16.118,36-36,36H112c-19.883,0-36-16.117-36-36&#10;&#9;&#9;V112C76,92.118,92.117,76,112,76z" style=""/>
  </g>
  <g>
    <g>
      <path fill="#FFFFFF" d="M346,170.871V156.77c0-11.453-9.316-20.77-20.77-20.77H186.77c-11.454,0-20.77,9.316-20.77,20.77v14.102&#10;&#9;&#9;&#9;l-26.834,41.282h233.668L346,170.871z M316,179.847H196c-3.823,0-6.923-3.1-6.923-6.923c0-3.823,3.1-6.923,6.923-6.923h120&#10;&#9;&#9;&#9;c3.823,0,6.924,3.101,6.924,6.923C322.924,176.747,319.823,179.847,316,179.847z"/>
      <path fill="#FFFFFF" d="M171.193,256c11.569,0,21.85-5.706,28.268-14.493C205.88,250.294,216.162,256,227.73,256&#10;&#9;&#9;&#9;c11.571,0,21.853-5.706,28.27-14.493c6.418,8.788,16.699,14.493,28.27,14.493c11.569,0,21.851-5.706,28.27-14.493&#10;&#9;&#9;&#9;c6.418,8.788,16.7,14.493,28.269,14.493c17.474,0,32.006-13.011,34.728-30h-239.07C139.186,242.989,153.719,256,171.193,256z"/>
      <path fill="#FFFFFF" d="M355.23,332.185c-0.381-0.021-197.307-0.031-197.307-0.031c-0.389,0-0.772,0.011-1.153,0.031&#10;&#9;&#9;&#9;c-11.554,0.603-20.77,10.192-20.77,21.892c0,12.09,9.834,21.924,21.923,21.924h196.153c12.09,0,21.924-9.834,21.924-21.924&#10;&#9;&#9;&#9;C376,342.377,366.785,332.787,355.23,332.185z"/>
      <path fill="#FFFFFF" d="M302.153,295.23c3.817,0,6.923-3.105,6.923-6.923c0-3.816-3.105-6.924-6.923-6.924h-18.461&#10;&#9;&#9;&#9;c-3.816,0-6.923,3.107-6.923,6.924c0,3.817,3.106,6.923,6.923,6.923H302.153z"/>
      <path fill="#FFFFFF" d="M354.076,318.308c0.387,0,0.771,0.018,1.154,0.028v-50.681c-4.562,1.424-9.404,2.191-14.423,2.191&#10;&#9;&#9;&#9;c-7.806,0-15.585-1.914-22.491-5.534c-2.003-1.049-3.934-2.241-5.777-3.563c-1.843,1.322-3.775,2.515-5.778,3.563&#10;&#9;&#9;&#9;c-2.479,1.3-5.072,2.375-7.738,3.228h3.131c11.454,0,20.771,9.316,20.771,20.768c0,11.452-9.316,20.769-20.771,20.769h-18.461&#10;&#9;&#9;&#9;c-11.452,0-20.769-9.316-20.769-20.769c0-8.663,5.333-16.103,12.888-19.212c-4.885-0.868-9.637-2.478-14.034-4.783&#10;&#9;&#9;&#9;c-2.002-1.049-3.934-2.241-5.777-3.563c-1.844,1.322-3.775,2.515-5.777,3.563c-4.398,2.306-9.15,3.915-14.037,4.783&#10;&#9;&#9;&#9;c7.557,3.109,12.891,10.549,12.891,19.212v30H354.076z"/>
    </g>
    <path fill="#FFFFFF" d="M212.978,267.54c-2.666-0.853-5.259-1.928-7.74-3.228c-2.001-1.049-3.933-2.241-5.776-3.563&#10;&#9;&#9;c-1.844,1.322-3.774,2.515-5.777,3.563c-6.907,3.62-14.686,5.534-22.491,5.534c-5.019,0-9.862-0.77-14.423-2.191v50.681&#10;&#9;&#9;c0.382-0.011,0.767-0.027,1.153-0.027h31.153v-30c0-11.452,9.316-20.769,20.77-20.769H212.978z"/>
    <path fill="#FFFFFF" d="M235.23,288.308c0-3.816-3.105-6.924-6.923-6.924h-18.461c-3.817,0-6.923,3.107-6.923,6.924v30h32.307&#10;&#9;&#9;V288.308z"/>
  </g>
</svg>