<?xml version="1.0" encoding="utf-8"?>
<svg version="1.1" id="Layer_1" x="0px" y="0px" width="360px" height="360px" viewBox="0 0 360 360" enable-background="new 0 0 360 360" xmlns="http://www.w3.org/2000/svg">
  <defs/>
  <g>
    <path fill-rule="evenodd" clip-rule="evenodd" d="M39.523,335.902H72.83c-0.341-31.918-0.02-64.037-0.02-95.976&#10;&#9;&#9;c0-7.458-1.104-43.486,0.883-47.275c2.588-4.912,12.079-3.488,20.205-3.488h59.911c4.173,0,7.023,0.301,8.829,3.448&#10;&#9;&#9;c1.706,2.967,0.762,40.539,0.762,47.315c0.02,31.979-0.14,63.998-0.02,95.976H320.42l0.039-168.172&#10;&#9;&#9;c0-2.546,0.603-9.604-0.602-11.088l-6.781-5.653c-5.558,3.288-6.28,10.365-26.625,10.365c-9.029,0-14.507-0.642-21.429-5.954&#10;&#9;&#9;c-1.585-1.203-3.511-3.729-5.196-4.432c-5.076,2.526-5.577,10.386-26.625,10.386c-8.988,0-14.286-0.401-21.469-5.895&#10;&#9;&#9;c-1.224-0.942-3.691-3.81-5.156-4.471c-5.478,2.687-5.357,10.325-26.625,10.325c-21.389,0-21.047-7.819-26.625-10.325&#10;&#9;&#9;c-2.127,1.042-4.314,5.052-10.734,7.879c-8.768,3.869-22.772,3.789-31.701-0.061c-6.662-2.866-8.407-6.736-10.814-7.818&#10;&#9;&#9;c-4.374,2.146-6.481,10.586-26.144,10.586c-6.762-0.021-10.413-0.061-16.011-2.587c-4.253-1.925-8.346-4.871-10.433-7.999&#10;&#9;&#9;c-3.13,0.722-3.712,3.81-7.865,5.333L39.523,335.902z M201.5,188.581c-6.741,1.905-4.936,9.925-4.936,17.623&#10;&#9;&#9;c0,10.746-0.562,65.241,0.361,68.067c1.966,6.195,10.333,4.571,17.736,4.571c10.955,0,64.927,0.621,68.057-0.401&#10;&#9;&#9;c6.18-2.064,4.515-11.188,4.515-17.603c0-10.286,0.461-65.782-0.321-68.027c-2.187-6.215-10.734-4.57-17.575-4.57&#10;&#9;&#9;C258.08,188.241,205.031,187.579,201.5,188.581L201.5,188.581z" style=""/>
    <path fill-rule="evenodd" clip-rule="evenodd" d="M2.987,106.059l353.668,0.101c-0.321-3.649-1.967-7.579-2.99-10.767l-6.461-20.29&#10;&#9;&#9;c-4.635-15.759-12.098-35.347-16.813-51.005H29.531c-3.611,12.33-9.51,27.908-13.382,40.64&#10;&#9;&#9;C11.895,78.771,7.24,92.145,2.987,106.059L2.987,106.059z" style=""/>
    <polygon fill-rule="evenodd" clip-rule="evenodd" points="86.112,335.902 150.096,335.902 150.076,202.576 &#10;&#9;&#9;86.132,202.696 &#9;" style=""/>
    <path fill-rule="evenodd" clip-rule="evenodd" d="M273.389,202.135c-3.109,0.822-54.754,0.18-62.94,0.261&#10;&#9;&#9;l-0.12,62.473c8.668,0,58.728,0.602,62.801-0.28C273.168,256.468,272.587,205.343,273.389,202.135L273.389,202.135z" style=""/>
    <path fill-rule="evenodd" clip-rule="evenodd" d="M252.944,119.531l-39.426-0.1c-0.903,4.832-0.883,16.239,2.428,21.412&#10;&#9;&#9;c3.531,5.514,8.326,7.398,17.255,7.398c8.968,0,13.423-1.704,17.135-7.058C253.205,137.035,254.269,125.747,252.944,119.531&#10;&#9;&#9;L252.944,119.531z" style=""/>
    <path fill-rule="evenodd" clip-rule="evenodd" d="M199.694,119.552l-39.446-0.08c-0.501,2.746-0.201,8.661-0.181,11.668&#10;&#9;&#9;c0.02,4.312,0.722,6.757,2.608,9.725c3.592,5.554,8.326,7.378,17.275,7.378c12.218,0,19.863-5.013,19.963-16.621&#10;&#9;&#9;C199.936,128.654,200.216,122.098,199.694,119.552L199.694,119.552z" style=""/>
    <path fill-rule="evenodd" clip-rule="evenodd" d="M39.924,119.571l-39.466-0.12c-0.823,4.592-0.823,16.4,2.428,21.453&#10;&#9;&#9;c3.491,5.434,8.307,7.338,17.335,7.338c12.339,0,19.763-5.474,19.903-16.621C40.165,128.634,40.426,122.178,39.924,119.571&#10;&#9;&#9;L39.924,119.571z" style=""/>
    <path fill-rule="evenodd" clip-rule="evenodd" d="M359.444,119.531l-39.427-0.06c-0.782,4.631-0.902,16.32,2.448,21.272&#10;&#9;&#9;c4.013,5.935,7.624,7.298,17.234,7.298c9.01,0,13.323-0.982,17.356-7.158C360.447,135.731,360.387,123.682,359.444,119.531&#10;&#9;&#9;L359.444,119.531z" style=""/>
    <path fill-rule="evenodd" clip-rule="evenodd" d="M146.464,119.512l-39.466-0.021c-0.843,4.512-0.863,16.301,2.408,21.313&#10;&#9;&#9;c3.953,6.035,7.965,7.258,17.295,7.238c9.189-0.04,13.483-1.283,17.295-7.178C146.826,136.514,147.688,126.048,146.464,119.512&#10;&#9;&#9;L146.464,119.512z" style=""/>
    <path fill-rule="evenodd" clip-rule="evenodd" d="M306.194,119.512l-39.426-0.021c-0.482,2.848-0.201,8.581-0.182,11.669&#10;&#9;&#9;c0.021,4.05,0.763,6.696,2.609,9.644c3.853,6.176,8.647,7.218,17.255,7.218c9.189,0,13.202-1.122,17.375-7.098&#10;&#9;&#9;C306.575,136.975,307.438,125.146,306.194,119.512L306.194,119.512z" style=""/>
    <path fill-rule="evenodd" clip-rule="evenodd" d="M93.174,119.552l-39.426-0.101c-1.264,6.356-0.361,17.243,2.368,21.453&#10;&#9;&#9;c3.772,5.814,8.347,7.117,17.355,7.117c6.641,0,13.042-0.24,17.275-7.218c1.706-2.826,2.588-5.192,2.628-9.183&#10;&#9;&#9;C93.415,128.654,93.696,122.138,93.174,119.552L93.174,119.552z" style=""/>
  </g>
</svg>