<?xml version="1.0" encoding="utf-8"?>
<svg version="1.1" id="Layer_1" x="0px" y="0px" width="360px" height="360px" viewBox="0 0 360 360" enable-background="new 0 0 360 360" xmlns="http://www.w3.org/2000/svg">
  <defs/>
  <g>
    <path d="M179.999,25c41.402,0,80.326,16.123,109.603,45.398C318.877,99.674,335,138.598,335,180&#10;&#9;&#9;c0,41.401-16.123,80.325-45.399,109.602C260.325,318.877,221.401,335,179.999,335c-41.402,0-80.325-16.123-109.601-45.398&#10;&#9;&#9;C41.123,260.325,25,221.401,25,180c0-41.402,16.123-80.326,45.398-109.602C99.673,41.123,138.597,25,179.999,25 M179.999,0&#10;&#9;&#9;C80.588,0,0,80.589,0,180c0,99.41,80.588,180,179.999,180S360,279.41,360,180C360,80.589,279.41,0,179.999,0L179.999,0z"/>
  </g>
  <g>
    <path d="M72.5,131.2v135.05c0,10.077,8.173,18.25,18.25,18.25h40.15v-14.6H94.4c-4.033,0-7.3-3.267-7.3-7.3h43.8&#10;&#9;&#9;V255.3H87.1v-3.65h43.8v-7.3H87.1V240.7h43.8v-7.3H87.1v-3.65h43.8v-7.3H87.1v-3.65h43.8v-7.3H87.1v-3.649h43.8v-7.301H87.1v-3.65&#10;&#9;&#9;h43.8v-7.3H87.1v-3.649h43.8v-7.3H87.1V175h43.8v-7.3H87.1v-3.65h43.8v-7.3H87.1v-3.65h43.8v-7.3H87.1v-3.65h43.8v-7.3H87.1&#10;&#9;&#9;c0-4.033,3.267-7.3,7.3-7.3h36.5v-14.6H90.75C80.673,112.95,72.5,121.122,72.5,131.2z" style=""/>
    <path d="M262.3,226.1c-1.825,0-3.603,0.19-5.332,0.507l-20.726-40.587L262.3,65.5l-43.8,85.775L174.7,65.5&#10;&#9;&#9;l26.057,120.52l-20.724,40.587c-1.73-0.316-3.508-0.507-5.333-0.507c-16.126,0-29.2,13.075-29.2,29.2&#10;&#9;&#9;c0,16.126,13.074,29.2,29.2,29.2c16.125,0,29.199-13.074,29.199-29.2c0-8.464-3.623-16.063-9.376-21.396l11.538-23.071&#10;&#9;&#9;c2.638-5.274,7.208-8.946,12.438-10.673c5.233,1.727,9.804,5.398,12.439,10.673l11.537,23.071&#10;&#9;&#9;c-5.752,5.333-9.377,12.933-9.377,21.396c0,16.126,13.075,29.2,29.2,29.2c16.126,0,29.2-13.074,29.2-29.2&#10;&#9;&#9;C291.5,239.175,278.426,226.1,262.3,226.1z M174.7,273.55c-10.078,0-18.25-8.172-18.25-18.25c0-10.077,8.172-18.25,18.25-18.25&#10;&#9;&#9;c10.078,0,18.25,8.173,18.25,18.25C192.95,265.378,184.778,273.55,174.7,273.55z M222.15,182.3v7.3h-7.3v-7.3H222.15z&#10;&#9;&#9; M262.3,273.55c-10.077,0-18.25-8.172-18.25-18.25c0-10.077,8.173-18.25,18.25-18.25c10.078,0,18.25,8.173,18.25,18.25&#10;&#9;&#9;C280.55,265.378,272.378,273.55,262.3,273.55z" style=""/>
  </g>
</svg>