<?xml version="1.0" encoding="utf-8"?>
<svg version="1.1" id="Layer_1" x="0px" y="0px" width="360px" height="360px" viewBox="0 0 360 360" enable-background="new 0 0 360 360" xmlns="http://www.w3.org/2000/svg">
  <defs/>
  <g id="Layer_x0020_1_1_">
    <path d="M36,0h288c19.882,0,36,16.118,36,36v288c0,19.883-16.118,36-36,36H36c-19.883,0-36-16.117-36-36V36&#10;&#9;&#9;C0,16.118,16.117,0,36,0z" style=""/>
  </g>
  <path fill="#FEFEFE" d="M68.834,283.76l29.585,0.808c0.336-12.776,0.739-25.351,1.075-37.99c0.134-5.85,1.682-34.156,0.808-37.518&#10;&#9;l-29.585-0.807c-0.335,12.776-0.672,25.348-1.009,37.988c-0.133,5.581-1.613,34.561-0.807,37.519H68.834z M107.16,274.816&#10;&#9;c1.882-0.67,4.168-2.085,5.917-2.957c8-3.9,13.447-3.968,21.919-1.48l55.335,15.467c10.02,2.688,21.585,1.681,30.794-1.55&#10;&#9;c6.725-2.351,25.686-15.531,32.947-20.168c3.498-2.222,7.33-4.573,10.759-6.926l32.273-20.845c1.748-1.143,3.429-2.286,5.244-3.429&#10;&#9;c1.747-1.075,3.832-2.287,5.244-3.495c-2.688-3.362-8.809-5.716-14.858-4.104c-4.506,1.211-34.966,16.542-42.093,19.635&#10;&#9;c1.481,12.908,0.74,10.825-23.937,10.153c-11.831-0.338-23.599-0.673-35.434-0.941c-8.676-0.202-6.657-7.866-2.018-8.405&#10;&#9;c3.967-0.471,13.179,0.267,17.684,0.403c11.766,0.336,23.669,0.807,35.366,0.94c-1.209-7.73-6.455-13.312-12.101-16.002&#10;&#9;c-9.817-4.64-36.982-0.941-52.581-4.235c-8.002-1.681-12.977-5.717-20.037-8.338c-15.733-5.85-32.61-4.103-45.923,3.696&#10;&#9;c-1.748,1.01-3.026,1.278-3.16,3.767c-0.135,2.218-0.067,4.638-0.135,6.925l-1.143,41.89H107.16L107.16,274.816z"/>
  <path fill-rule="evenodd" clip-rule="evenodd" fill="#FEFEFE" d="M180.147,198.253c-2.614-0.158-5.017-0.252-7.409-0.463&#10;&#9;c-2.719-0.24-3.875-1.586-3.881-4.335c-0.016-7.326-4.282-13.185-11.146-14.877c-5.273-1.301-9.965,0.134-14.077,3.675&#10;&#9;c-0.911,0.784-2.033,1.555-3.166,1.774c-0.874,0.169-2.182-0.26-2.84-0.896c-3.557-3.436-7.021-6.972-10.411-10.573&#10;&#9;c-1.364-1.448-1.112-3.539,0.482-5.12c2.542-2.522,4.093-5.492,4.603-9.047c1.177-8.21-5.221-16.107-13.529-16.657&#10;&#9;c-0.895-0.059-1.814-0.072-2.672-0.298c-1.912-0.505-3.034-1.8-3.066-3.771c-0.075-4.546-0.114-9.097,0.013-13.641&#10;&#9;c0.087-3.093,1.447-4.222,4.581-4.269c8.75-0.13,15.545-7.038,15.141-15.452c-0.183-3.789-1.596-7.089-4.259-9.824&#10;&#9;c-2.44-2.506-2.576-4.19-0.149-6.711c3.083-3.204,6.28-6.306,9.54-9.331c2.025-1.879,3.815-1.702,5.943,0.283&#10;&#9;c3.97,3.703,8.651,5.167,13.961,4.117c6.604-1.305,11.189-7.095,11.54-14.269c0.172-3.491,1.157-4.615,4.613-4.693&#10;&#9;c4.296-0.096,8.598-0.067,12.893,0.07c3.073,0.098,4.24,1.489,4.251,4.591c0.022,6.317,3.508,11.697,9.069,13.999&#10;&#9;c5.495,2.274,12.146,0.898,16.515-3.416c2.05-2.024,3.941-2.192,6.019-0.209c3.253,3.105,6.438,6.289,9.506,9.575&#10;&#9;c2.026,2.17,1.828,4.015-0.271,6.174c-6.969,7.166-5.575,18.288,2.972,23.419c2.13,1.278,4.465,1.971,6.986,1.983&#10;&#9;c3.424,0.016,4.993,1.457,5.069,4.9c0.091,4.146,0.093,8.298-0.03,12.442c-0.1,3.356-1.438,4.488-4.77,4.603&#10;&#9;c-6.307,0.216-11.147,3.01-13.697,8.822c-2.646,6.034-1.467,11.645,3.049,16.49c2.333,2.502,2.488,4.149,0.123,6.62&#10;&#9;c-3.108,3.246-6.341,6.381-9.647,9.425c-2.021,1.86-3.795,1.578-5.929-0.384c-4.541-4.175-9.851-5.487-15.707-3.574&#10;&#9;c-5.78,1.887-9.653,7.528-9.764,13.646c-0.063,3.444-1.216,4.646-4.664,4.854C183.935,198.026,181.938,198.146,180.147,198.253z&#10;&#9; M213.183,150.718c9.454-15.03,6.977-37.206-8.68-49.889c-16.244-13.157-38.994-11.425-53.292,3.958&#10;&#9;c-13.54,14.567-13.352,37.885,0.432,52.568c14.33,15.265,35.769,15.144,49.037,6.131c-5.514-5.533-11.017-11.071-16.56-16.568&#10;&#9;c-0.245-0.243-0.889-0.221-1.307-0.133c-1.901,0.4-3.766,1.039-5.683,1.285c-16.227,2.085-29.75-13.109-25.899-29.04&#10;&#9;c0.293-1.215,0.706-2.274,2.069-2.685c1.356-0.408,2.175,0.373,3.007,1.199c3.339,3.317,6.696,6.616,10.007,9.961&#10;&#9;c0.771,0.78,1.591,1.151,2.675,0.99c2.275-0.337,4.553-0.651,6.829-0.979c0.972-0.14,1.458-0.692,1.589-1.683&#10;&#9;c0.279-2.131,0.592-4.26,0.967-6.377c0.221-1.249-0.099-2.143-1.038-3.058c-3.442-3.353-6.819-6.777-10.157-10.235&#10;&#9;c-1.756-1.819-1.205-3.824,1.172-4.659c0.377-0.133,0.76-0.267,1.152-0.332c9.479-1.577,17.534,1.065,23.536,8.633&#10;&#9;c5.402,6.811,6.414,14.566,3.739,22.831c-0.173,0.535-0.112,1.449,0.232,1.802C202.336,139.875,207.726,145.247,213.183,150.718z"/>
</svg>