<?xml version="1.0" encoding="utf-8"?>
<svg version="1.1" id="Layer_1" x="0px" y="0px" width="360px" height="360px" viewBox="0 0 360 360" enable-background="new 0 0 360 360" xmlns="http://www.w3.org/2000/svg">
  <defs/>
  <g>
    <path fill-rule="evenodd" clip-rule="evenodd" d="M35.423,101.822V169.1c-0.054,7.401,3.622,8.607,10.542,8.572h97.477&#10;&#9;&#9;c28.708,0,25.644,3.043,25.644-25.644c0-5.024,0.757-50.909-0.522-54.186c-1.947-4.934-6.344-4.52-12.056-4.52L43.965,93.304&#10;&#9;&#9;C38.09,93.268,35.423,95.987,35.423,101.822L35.423,101.822z" style=""/>
    <polygon fill-rule="evenodd" clip-rule="evenodd" points="49.534,163.463 154.94,163.607 155.012,107.458 &#10;&#9;&#9;49.624,107.386 &#9;" style=""/>
    <path fill-rule="evenodd" clip-rule="evenodd" d="M47.912,192.042c-6.001,1.765-6.271,7.419-4.487,10.246&#10;&#9;&#9;c2.721,4.304,7.316,3.494,13.102,3.494c11.209,0,22.437,0.072,33.664,0.018c8.127-0.036,63.813,0.504,66.643-0.234&#10;&#9;&#9;c4.325-1.134,6.578-6.212,4.199-10.318c-2.559-4.43-7.533-3.512-13.066-3.512H81.143C75.593,191.735,51.083,191.105,47.912,192.042&#10;&#9;&#9;L47.912,192.042z" style=""/>
    <path fill-rule="evenodd" clip-rule="evenodd" d="M47.912,220.152c-6.83,2.017-7.334,10.265-1.261,13.073&#10;&#9;&#9;c3.514,1.621,17.444,0.667,22.436,0.667c7.695,0,40.656,0.99,45.45-0.271c6.308-1.656,7.316-10.462,1.081-13.146&#10;&#9;&#9;C112.23,219.036,49.57,219.666,47.912,220.152L47.912,220.152z" style=""/>
    <path fill-rule="evenodd" clip-rule="evenodd" d="M187.847,2.544c-9.587,4.16-2.938,16.117,4.902,13.001&#10;&#9;&#9;C201.057,12.25,196.425-1.166,187.847,2.544L187.847,2.544z" style=""/>
    <path fill-rule="evenodd" clip-rule="evenodd" d="M40.145,30.672c-4.109,1.765-5.731,5.222-4.253,9.004&#10;&#9;&#9;c1.154,2.972,5.172,5.402,9.029,3.926C53.282,40.378,48.669,26.981,40.145,30.672L40.145,30.672z" style=""/>
    <path fill-rule="evenodd" clip-rule="evenodd" d="M110.464,30.654c-9.551,4.106-3.028,15.955,4.812,12.948&#10;&#9;&#9;C123.638,40.378,119.024,26.981,110.464,30.654L110.464,30.654z" style=""/>
    <path fill-rule="evenodd" clip-rule="evenodd" d="M75.304,30.672c-4.091,1.765-5.73,5.222-4.235,9.004&#10;&#9;&#9;c1.153,3.007,5.136,5.438,8.993,3.908C88.604,40.199,83.702,27.035,75.304,30.672L75.304,30.672z" style=""/>
    <path fill-rule="evenodd" clip-rule="evenodd" d="M14.464,72.343l309.263-0.108l0.108,130.847c3.946-0.54,9.641,0.414,13.894,1.351&#10;&#9;&#9;c0.072-5.511,0.198-11.058,0.198-16.243L337.91,59.647c0-9.418,0.829-23.14-0.108-32.036c-0.919-8.968-5.28-15.991-11.768-20.421&#10;&#9;&#9;c-8.849-6.033-14.76-5.223-26.834-5.24c-25.554-0.054-54.604-0.45-79.924-0.018c-10.219,0.18-12.255,14.136,2.036,14.082&#10;&#9;&#9;l80.394-0.018c5.622,0,10.001-0.594,14.488,1.567c3.479,1.693,5.947,4.844,7.154,8.95c0.901,3.007,0.739,26.958,0.396,31.568&#10;&#9;&#9;L14.429,58.17c-0.415-6.249-0.054-13.362-0.054-19.61c0-11.021-0.703-22.6,16.525-22.546l119.066-0.018&#10;&#9;&#9;c5.767,0,13.967,1.261,17.265-2.341c3.964-4.322,1.045-10.823-4.289-11.615c-4.65-0.667-14.778-0.09-20.004-0.09&#10;&#9;&#9;c-2.649,0-114.146-0.541-118.382,0.252C13.726,4.201,5.904,10.575,2.318,19.471c-3.316,8.194-2.073,27.318-2.054,37.673v78.821&#10;&#9;&#9;c0,5.529-1.226,14.353,1.604,17.936c3.568,4.502,10.723,2.971,12.201-2.629c1.135-4.322,0.306-32.613,0.306-39.402&#10;&#9;&#9;C14.356,104.217,13.96,77.709,14.464,72.343L14.464,72.343z M155.265,255.25c-16.381,0.107-40.368-0.307-51.018-0.271&#10;&#9;&#9;c-21.752,0.108-43.54-0.018-65.309-0.018c-4.758,0-11.155,0.738-15.264-0.811c-3.766-1.44-6.758-4.178-8.236-7.798&#10;&#9;&#9;c-2.126-5.15-1.099-24.418-1.099-31.567c0-10.877-0.018-21.754,0-32.631c0.018-5.331-0.018-9.67-4.83-11.183&#10;&#9;&#9;c-5.28-1.657-8.938,2.449-9.209,6.663l0.018,64.792c0.306,8.896,5.388,16.676,11.479,21.105c8.542,6.231,14.093,5.511,27.14,5.511&#10;&#9;&#9;h97.477c5.893,0,12.417-0.198,18.814-0.233C154.851,263.245,154.94,258.779,155.265,255.25L155.265,255.25z" style=""/>
    <path fill-rule="evenodd" clip-rule="evenodd" stroke="#221F20" stroke-width="0.5144" stroke-miterlimit="10" d="M205.237,114.824&#10;&#9;&#9;h75.022c9.605,0,17.481,7.87,17.481,17.468l0,0c0,9.616-7.876,17.467-17.481,17.467h-75.022c-9.623,0-17.48-7.851-17.48-17.467l0,0&#10;&#9;&#9;C187.757,122.693,195.614,114.824,205.237,114.824L205.237,114.824z" style=""/>
    <path fill-rule="evenodd" clip-rule="evenodd" d="M225.421,212.715l0.036,46.875c0,12.228-14.939,12.191-14.939,0&#10;&#9;&#9;l0.018-27.156c0-20.007-20.039-26.184-26.221-22.401c-5.46,3.35-3.64,14.442-3.64,21.861v43.688&#10;&#9;&#9;c0.126,33.998,9.353,57.139,33.501,77.83c5.929,5.078,4.668,4.772,13.913,4.772h82.087c11.804,0,8.649,1.404,18.129-6.43&#10;&#9;&#9;c13.317-10.984,23.824-29.154,28.455-46.063c4.344-15.865,3.064-41.635,3.064-60.472c0-18.493-20.977-17.089-22.347-3.727&#10;&#9;&#9;c-0.486,4.718-2.433,8.607-7.569,8.518c-11.118-0.162-6.091-15.127-7.623-23.843c-1.459-8.374-11.569-13.163-18.651-6.699&#10;&#9;&#9;c-4.56,4.16-2.253,6.483-4.289,11.147c-1.586,3.619-5.911,5.727-10.128,3.584c-8.308-4.215,0.253-16.153-8.632-22.816&#10;&#9;&#9;c-6.109-4.574-16.58-2.863-17.823,8.788c-1.1,10.3-14.922,10.3-14.922-1.604l0.018-64.486c-0.18-11.039-12.236-16.604-19.265-8.464&#10;&#9;&#9;c-3.677,4.25-3.136,8.392-3.136,14.353L225.421,212.715z" style=""/>
  </g>
</svg>