<?xml version="1.0" encoding="utf-8"?>
<svg version="1.1" id="Layer_1" x="0px" y="0px" width="360px" height="360px" viewBox="0 0 360 360" enable-background="new 0 0 360 360" xmlns="http://www.w3.org/2000/svg">
  <defs/>
  <g>
    <path fill-rule="evenodd" clip-rule="evenodd" d="M247.502,79.325c33.474,0.002,66.947,0.001,100.42,0.005&#10;&#9;&#9;c1.607,0,3.218-0.028,4.819,0.071c5.809,0.363,8.393,3.861,6.793,9.55c-3.512,12.493-7.15,24.951-10.772,37.413&#10;&#9;&#9;c-5.824,20.04-11.65,40.079-17.53,60.102c-2.333,7.948-7.001,11.416-15.306,11.419c-44.586,0.02-89.173,0.018-133.759,0.003&#10;&#9;&#9;c-8.237-0.003-12.978-3.479-15.606-11.187c-10.49-30.771-21-61.535-31.498-92.302c-0.476-1.393-1.009-2.777-1.337-4.206&#10;&#9;&#9;c-1.311-5.712,1.901-10.258,7.737-10.708c3.463-0.267,6.958-0.155,10.438-0.157C183.769,79.32,215.636,79.324,247.502,79.325z" style=""/>
    <path fill-rule="evenodd" clip-rule="evenodd" d="M229.472,265.469c-33.48,0-66.961-0.105-100.439,0.124&#10;&#9;&#9;c-4.562,0.031-6.323-1.36-7.788-5.612c-23.12-67.046-46.483-134.008-69.624-201.046c-1.364-3.951-3.064-5.404-7.294-5.226&#10;&#9;&#9;c-8.555,0.364-17.138,0.164-25.708,0.09C7.836,53.706-0.099,46.01,0.001,35.867c0.1-10.037,7.877-17.449,18.593-17.493&#10;&#9;&#9;c17.677-0.07,35.355,0.055,53.032-0.088c2.82-0.023,3.846,0.959,4.73,3.513c23.523,67.898,47.179,135.751,70.646,203.668&#10;&#9;&#9;c1.259,3.645,2.975,4.472,6.565,4.465c59.193-0.112,118.386-0.099,177.581-0.063c12.519,0.008,21.047,10.037,18.54,21.59&#10;&#9;&#9;c-1.827,8.421-8.804,13.921-18.168,13.978c-17.41,0.104-34.82,0.054-52.229,0.06c-16.606,0.006-33.213,0.001-49.818,0.001&#10;&#9;&#9;C229.472,265.487,229.472,265.479,229.472,265.469z" style=""/>
    <path fill-rule="evenodd" clip-rule="evenodd" d="M193.082,310.152c-0.063,17.299-14.25,31.349-31.549,31.244&#10;&#9;&#9;c-17.364-0.104-31.36-14.238-31.247-31.556c0.114-17.413,14.138-31.29,31.553-31.223&#10;&#9;&#9;C179.18,278.686,193.146,292.781,193.082,310.152z" style=""/>
    <path fill-rule="evenodd" clip-rule="evenodd" d="M294.571,341.715c-17.366-0.016-31.451-14.053-31.447-31.343&#10;&#9;&#9;c0.004-17.191,14.252-31.393,31.488-31.387c17.319,0.006,31.412,14.114,31.388,31.423&#10;&#9;&#9;C325.977,327.818,312.009,341.731,294.571,341.715z" style=""/>
  </g>
</svg>